<?xml version="1.0" encoding="utf-8"?>
<!-- Generator: Adobe Illustrator 16.0.0, SVG Export Plug-In . SVG Version: 6.00 Build 0)  -->
<!DOCTYPE svg PUBLIC "-//W3C//DTD SVG 1.1//EN" "http://www.w3.org/Graphics/SVG/1.1/DTD/svg11.dtd">
<svg version="1.1" id="Layer_1" xmlns="http://www.w3.org/2000/svg" xmlns:xlink="http://www.w3.org/1999/xlink" x="0px" y="0px"
	 width="105.333px" height="85.667px" viewBox="0 0 105.333 85.667" enable-background="new 0 0 105.333 85.667"
	 xml:space="preserve">
<path fill="#FF0000" d="M11.242,42.67C6.221,47.235,3.71,52.94,3.71,59.789c0,6.391,2.222,11.821,6.666,16.291
	c4.444,4.471,9.808,6.707,16.091,6.707c4.27,0,8.178-1.015,11.721-3.041c3.545-2.027,6.344-4.84,8.398-8.438
	c2.055-3.599,3.082-7.466,3.082-11.601c0-4.108-1.021-7.936-3.061-11.479c-0.875-1.517-1.904-2.892-3.07-4.138l-8.74,6.092
	c0.143,0.134,0.289,0.259,0.426,0.402c2.244,2.35,3.368,5.404,3.368,9.164c0,3.758-1.144,6.834-3.43,9.224
	c-2.286,2.391-5.15,3.585-8.593,3.585c-3.443,0-6.289-1.182-8.533-3.545c-2.246-2.362-3.369-5.452-3.369-9.264
	c0-3.707,1.136-6.748,3.408-9.123c0.949-0.994,2.005-1.766,3.154-2.346l-5.214-8.997C14.347,40.18,12.755,41.305,11.242,42.67"/>
<path fill="#FF0000" d="M24.898,16.644c-0.272,0.51-0.483,1.037-0.638,1.574l0.003,0.003c-0.296,1.012-0.367,2.048-0.264,3.064
	l0.002,0.007c0.077,0.774,0.257,1.537,0.553,2.25l1.463,5.941c0.034,0.194,0.082,0.389,0.143,0.582l0.004,0.022l0.008,0.002
	c0.318,0.936,0.967,1.761,1.905,2.257c1.665,0.888,3.657,0.48,4.868-0.861l0.01,0.005l4.697-5.12
	c0.272-0.259,0.525-0.535,0.761-0.835l0.384-0.415l-0.053-0.026c0.174-0.252,0.342-0.514,0.49-0.794
	c2.115-3.962,0.621-8.883-3.34-10.996c-1.22-0.651-2.531-0.96-3.822-0.96C29.17,12.344,26.363,13.904,24.898,16.644"/>
<path fill="#FF0000" d="M28.154,38.631C19.908,35.383,5.498,16.206,5.498,16.206l21.218,36.625L98.779,2.603
	C73.859,16.93,28.154,38.631,28.154,38.631"/>
</svg>
